<svg
  width="16"
  height="16"
  viewBox="0 0 16 16"
  fill="none"
  xmlns="http://www.w3.org/2000/svg"
>
<path
    d="M11.1894 6.71429C11.1894 8.91964 9.39472 10.7143 7.18936 10.7143C4.984 10.7143 3.18936 8.91964 3.18936 6.71429C3.18936 4.50893 4.984 2.71428 7.18936 2.71428C9.39472 2.71428 11.1894 4.50893 11.1894 6.71429ZM15.7608 14.1429C15.7608 13.8393 15.6358 13.5446 15.4304 13.3393L12.3679 10.2768C13.0911 9.23214 13.4751 7.98214 13.4751 6.71429C13.4751 3.24107 10.6626 0.428571 7.18936 0.428571C3.71615 0.428571 0.903646 3.24107 0.903646 6.71429C0.903646 10.1875 3.71615 13 7.18936 13C8.45722 13 9.70722 12.6161 10.7519 11.8929L13.8144 14.9464C14.0197 15.1607 14.3144 15.2857 14.6179 15.2857C15.2429 15.2857 15.7608 14.7679 15.7608 14.1429Z"
    fill="#444444"
  />
</svg>
